<?xml version="1.0" encoding="UTF-8" standalone="no"?>
<!DOCTYPE svg PUBLIC "-//W3C//DTD SVG 1.1//EN" "http://www.w3.org/Graphics/SVG/1.1/DTD/svg11.dtd">
<svg width="100%" height="100%" viewBox="0 0 1685 846" version="1.1" xmlns="http://www.w3.org/2000/svg" xmlns:xlink="http://www.w3.org/1999/xlink" xml:space="preserve" xmlns:serif="http://www.serif.com/" style="fill-rule:evenodd;clip-rule:evenodd;stroke-linecap:round;stroke-linejoin:round;stroke-miterlimit:1.5;">
    <g transform="matrix(1,0,0,1,-330.721,-1983.76)">
        <g>
            <g transform="matrix(0.852914,0,0,1,-813.262,1424.87)">
                <g transform="matrix(1,0,0,0.923479,441.701,97.3451)">
                    <path d="M998.907,1002.72L899.565,889.607L899.565,1267.76L999.907,1384.94L998.907,1002.72Z" style="fill:rgb(229,105,113);"/>
                </g>
                <g transform="matrix(1,0,0,0.936182,1128.53,52.7289)">
                    <path d="M998.907,1002.72L899.565,896.328L899.565,1300.27L999.907,1410.74L998.907,1002.72Z" style="fill:rgb(229,105,113);"/>
                </g>
                <g transform="matrix(1,0,0,0.936182,802.728,79.7528)">
                    <path d="M998.935,1013.25L899.565,896.328L899.565,1274.48L999.907,1384.94L998.935,1013.25Z" style="fill:rgb(229,105,113);"/>
                </g>
                <g transform="matrix(1,0,0,1,1154.99,0)">
                    <path d="M545.044,919.879L973.45,1376.31" style="fill:none;stroke:rgb(255,200,112);stroke-width:8.97px;"/>
                </g>
                <g transform="matrix(1,0,0,1,1154.99,-356.824)">
                    <path d="M545.044,919.879L973.45,1348.29" style="fill:none;stroke:rgb(255,200,112);stroke-width:8.97px;"/>
                </g>
                <g transform="matrix(1,0,0,1,1154.99,0)">
                    <path d="M647.646,669.71L286.572,1024.78L186.275,919.879L543.099,563.055L647.646,669.71Z" style="fill:rgb(255,200,112);"/>
                </g>
            </g>
            <g transform="matrix(5.89218,0,0,9.09053,-5835.18,-21997.1)">
                <text x="1167.71px" y="2727.92px" style="font-family: 'Varela Round', sans-serif;font-size:50px;fill:rgb(255,200,112);">HOUSE</text>
            </g>
            <g transform="matrix(1,0,0,1,-61.0547,-88.6299)">
                <circle cx="2048.12" cy="2889.81" r="27.7" style="fill:rgb(229,105,113);"/>
            </g>
        </g>
    </g>
</svg>
